<svg id="visual" viewBox="0 0 900 600" width="900" height="600" xmlns="http://www.w3.org/2000/svg" xmlns:xlink="http://www.w3.org/1999/xlink" version="1.1"><rect x="0" y="0" width="900" height="600" fill="#050844"></rect><path d="M0 91L21.5 85.7C43 80.3 86 69.7 128.8 76.8C171.7 84 214.3 109 257.2 121.3C300 133.7 343 133.3 385.8 126.2C428.7 119 471.3 105 514.2 90.8C557 76.7 600 62.3 642.8 59C685.7 55.7 728.3 63.3 771.2 61.3C814 59.3 857 47.7 878.5 41.8L900 36L900 0L878.5 0C857 0 814 0 771.2 0C728.3 0 685.7 0 642.8 0C600 0 557 0 514.2 0C471.3 0 428.7 0 385.8 0C343 0 300 0 257.2 0C214.3 0 171.7 0 128.8 0C86 0 43 0 21.5 0L0 0Z" fill="#ffffff" stroke-linecap="round" stroke-linejoin="miter"></path></svg>